PathFileType	4	(X/Y/Z)	pose_F01_0-91.trc
DataRate	CameraRate	NumFrames	NumMarkers	Units	OrigDataRate	OrigDataStartFrame	OrigNumFrames
30	30	8	21	m	30	45	91
Frame#	Time	CHip			RHip			RKnee			RAnkle			RBigToe			RSmallToe			RHeel			LHip			LKnee			LAnkle			LBigToe			LSmallToe			LHeel			Neck			Nose			RShoulder			RElbow			RWrist			LShoulder			LElbow			LWrist			
		X1	Y1	Z1	X2	Y2	Z2	X3	Y3	Z3	X4	Y4	Z4	X5	Y5	Z5	X6	Y6	Z6	X7	Y7	Z7	X8	Y8	Z8	X9	Y9	Z9	X10	Y10	Z10	X11	Y11	Z11	X12	Y12	Z12	X13	Y13	Z13	X14	Y14	Z14	X15	Y15	Z15	X16	Y16	Z16	X17	Y17	Z17	X18	Y18	Z18	X19	Y19	Z19	X20	Y20	Z20	X21	Y21	Z21	
45	1.5	-0.19040932281266054	1.8338534252521201	-0.6679430097822594	-0.20349493080760922	1.8321777959925674	-0.603786647544309	-0.21031875816938078	1.7106203033361966	-0.5514056868281366	-0.198553964157553	1.5925346150017583	-0.5105054202416704	-0.22366010430537056	1.5549800251233927	-0.45756477821496044	-0.21875740609683003	1.5638223211627902	-0.4364818334774858	-0.19217148767802947	1.5844392771095437	-0.5206395047624978	-0.17476039194713336	1.8360918795337162	-0.7373032767121643	-0.17270962423111508	1.7053013566649597	-0.7172772282841273	-0.18155091297015014	1.5640415557381018	-0.6884258082086956	-0.21524253059588003	1.5263728051759873	-0.6461922255493623	-0.20711489105617598	1.5290258275359936	-0.6835494325375986	-0.17584538224701418	1.55264022516956	-0.6838246121577121	-0.19159486697277045	1.9917670859614005	-0.6829460826440701	-0.2365104880881529	2.0209490930851866	-0.6224677302270023	-0.2113029267787488	1.9828427320018076	-0.5841696683152297	-0.21130953788619108	1.9064408216615485	-0.5188418906259759	-0.23865038442031702	1.8499246485911485	-0.4626976792669549	-0.17210023765035573	1.9999444058183822	-0.7817386803357662	-0.13930133312332024	1.9292833017733557	-0.8522104768149082	-0.1832617043725144	1.868731717378753	-0.8573470939436819
46	1.5333333333333334	-0.1899045108729497	1.8376557159790337	-0.6685195967574047	-0.20510814844753944	1.8357230142608092	-0.602030490168688	-0.21074129592591628	1.7091761364448879	-0.5550206305353911	-0.1928550114732558	1.592316209556464	-0.5340260663362422	-0.22195113817381382	1.5559332578758798	-0.4730516410944729	-0.218412744265026	1.5641091795597584	-0.45453432985985	-0.18474026678874858	1.5859623497504123	-0.5508337408453615	-0.17202155316869455	1.839756415180864	-0.7402417990343547	-0.17561834498826878	1.7064385802498538	-0.7104792902491109	-0.1825711587858312	1.5643787593057257	-0.6915859030955892	-0.21815379984318362	1.5248251960011874	-0.6474330032609338	-0.20917720412083546	1.5276056268636158	-0.6816522955320683	-0.17665249581634743	1.5519821468232382	-0.6873319368637217	-0.18935032761847884	1.9931792935858037	-0.6852842204453355	-0.23722357659594093	2.0259337747563344	-0.6262321533161278	-0.2091775137651028	1.984116651218524	-0.5865325912113413	-0.2078195328223345	1.9143459086842733	-0.5275824038722398	-0.22757910731979472	1.858671264297179	-0.510444901821897	-0.1699095526302812	2.0002226582115816	-0.7840472695031242	-0.1376405702120153	1.9308498027302812	-0.8574902154141325	-0.18644598738352064	1.873387761314059	-0.8269803889833968
47	1.5666666666666667	-0.19154373486486295	1.8375034399911072	-0.6630858780669843	-0.2096267060496964	1.8357369603072309	-0.5975121383178014	-0.21021467622781248	1.7054058804015761	-0.559580726434605	-0.19675904906468597	1.5853010347769316	-0.5468877569502903	-0.22722561740447256	1.550402106067993	-0.48921035511783983	-0.22159847210786898	1.5575376904601521	-0.4734545268641769	-0.19199752341759418	1.5748366527307573	-0.5550660061153029	-0.17594764434733368	1.8396221919290545	-0.7324272013127547	-0.1762069589504973	1.703740745080026	-0.7095991465860748	-0.18352653237732142	1.5614104105437003	-0.6943473007093797	-0.21812210886554118	1.524703426475196	-0.6474424109523167	-0.20884485083285248	1.5255381264490286	-0.6818346059752648	-0.17453025546060036	1.54978335640839	-0.6890345504174236	-0.18920317053057706	1.9945661634617067	-0.685307129559301	-0.23398584403533926	2.0320982926607583	-0.6260020692121421	-0.2088306051832723	1.98898168165614	-0.5870207105987711	-0.20788857096049393	1.9180203451525832	-0.5196709660534942	-0.22029414621443977	1.8712107538470861	-0.5507406156703165	-0.16984757700891448	2.0002527975038977	-0.7840928450261859	-0.1369437959929279	1.9281156440386975	-0.8542025104967564	-0.19431543557619851	1.8785792115482565	-0.7805457113827061
48	1.6	-0.1904330961120922	1.830772030706823	-0.6588034429579689	-0.2075912740434526	1.8301143763616476	-0.5901569176562931	-0.20043945472592037	1.7027415539199993	-0.5654569852422804	-0.19565094356963417	1.581171426671545	-0.5435967377551016	-0.2267990978529292	1.5481443476842354	-0.48944801954205863	-0.2210251133063345	1.5545009957829918	-0.4736314562216892	-0.19157863920041038	1.5716173779333462	-0.5554128165511856	-0.17710247071302548	1.832627687148198	-0.7261153849305865	-0.1810129507320322	1.7019296084002	-0.6962084311468921	-0.18388223657419556	1.5641208186275493	-0.6860083434200283	-0.21527977715550842	1.5263882170576293	-0.646061697248379	-0.20842269885255876	1.5289544435014284	-0.6781780826704633	-0.175985570934864	1.5534954663402893	-0.6837278685991446	-0.19284360897113423	1.994216985450986	-0.6778214902621759	-0.2329478064534256	2.0413818814837024	-0.6250861946679533	-0.2141636069794977	1.9887544220039894	-0.57697746380242	-0.2100558964766454	1.9153920536175415	-0.5168941110096404	-0.2197713055421431	1.8802997908192776	-0.5581802271496361	-0.1704869318275333	1.9999645315670673	-0.7757189672769154	-0.13758874292378467	1.925399680161322	-0.8452268948465705	-0.18605730649305924	1.8805634690855109	-0.7615102829240314
49	1.6333333333333333	-0.1924286463715881	1.8360270234259677	-0.6572858133369602	-0.20853919192145454	1.8340214365112744	-0.5853315483925393	-0.2001175222336641	1.6997306603565123	-0.5654414520198928	-0.197416433476318	1.5795090070060664	-0.5416162228861906	-0.227067820013115	1.5466847859695994	-0.4887851264449087	-0.22121016276893354	1.5528358889492389	-0.4730039485964287	-0.19398529257618335	1.5703539299940343	-0.5525873148976013	-0.17922586191132286	1.8378736332402572	-0.7245805636658466	-0.19286308158399326	1.7024319051030252	-0.6799828917381076	-0.18585091882557236	1.5654566180550478	-0.6715401309454493	-0.21939980016648272	1.5247034163043878	-0.641942158020341	-0.21250077672440418	1.526795542571436	-0.6739576896782178	-0.17354231593413508	1.5543601301863668	-0.6738891537583799	-0.19055056597447967	1.9943188022941178	-0.6799162246967654	-0.23240885719937363	2.0464667543100226	-0.6342563981040862	-0.21496690454445314	1.9913933049238757	-0.5805915709458603	-0.21717064918533488	1.9152759154386245	-0.513425726413074	-0.2270406747008049	1.8787256390624272	-0.5922652595804191	-0.16898522367984037	1.998788068514785	-0.7807466551452419	-0.13783968869242486	1.9239848673468078	-0.8450985474736974	-0.18862300534575083	1.8783192787510004	-0.7704881319979456
50	1.6666666666666667	-0.19554517624132278	1.8343312563924383	-0.6494847365224904	-0.20946746625724336	1.8339842010264298	-0.579836661825304	-0.2058133389974072	1.7023091524315634	-0.5551380266896074	-0.19592681777508292	1.5824977800463453	-0.5344043764652177	-0.22911492620381427	1.546856228018083	-0.48651962569931456	-0.2203055318038985	1.553305118993962	-0.469482095429972	-0.1932032391623341	1.5716619481540859	-0.548868239686854	-0.18314492702179078	1.8349939081097069	-0.7196023531014214	-0.19686313899776747	1.6953375188690527	-0.6710222592955125	-0.19168828950700947	1.5632211222437713	-0.6656837229465807	-0.22149466095746512	1.5203667045182223	-0.6396637481025191	-0.21244023226587502	1.5256892972026554	-0.6740128263605094	-0.18384767896175636	1.552070335345687	-0.6635569412157171	-0.18937707912972976	1.9976556735158375	-0.6971544105295729	-0.2225901951747802	2.0490049639135965	-0.6483587973471303	-0.21139220093978225	1.9944844904338102	-0.5972178257458609	-0.2187316415891847	1.9242923075632015	-0.5211931404279829	-0.21774082489595217	1.8879061462745081	-0.5996664207906472	-0.16373376894499234	1.9989721124549396	-0.7936496007718356	-0.13853394357043516	1.9201295332277573	-0.8479287266362262	-0.18737807732373332	1.878449486725857	-0.7759685267872989
51	1.7	-0.19893058770037908	1.835683850718304	-0.6503645885422906	-0.21266284217815906	1.8391384516685096	-0.5815584753595345	-0.2259011597378437	1.7135036340674141	-0.530703665224375	-0.2020024015384	1.5949127993152037	-0.5113576297095023	-0.23061648585991848	1.5587001766526003	-0.48521088960116315	-0.22774732449651688	1.5641442613563226	-0.46199879016064704	-0.19056616650004027	1.590050904119928	-0.5228711480570365	-0.1839265007216783	1.8337004526893619	-0.7192530071239018	-0.19544015942317952	1.698234999146821	-0.6767431390425017	-0.18869994628955059	1.5633771139398058	-0.6645545141253022	-0.22312978912992337	1.5232595761031462	-0.6336693057555451	-0.20961943084382467	1.5278800817091716	-0.6728049451302185	-0.18269470287548367	1.5505584976512272	-0.660444616609371	-0.18022361561227224	1.9952478669323197	-0.7145633901528626	-0.2136355701468112	2.0485898886689267	-0.6651383060764923	-0.20562647513760293	1.9963426801637878	-0.6157618372061224	-0.2136257581006463	1.9225467570365466	-0.5397515608115723	-0.216181566456913	1.900961192416852	-0.5982010730531578	-0.1545707194464003	1.9971963484595532	-0.8141498745586271	-0.14029747437307794	1.9153319153628323	-0.8648921451414369	-0.1972161766121907	1.878096862569933	-0.7696734790506717
52	1.7333333333333334	-0.1995170713697016	1.842711537954145	-0.6513823456524125	-0.21501231889772385	1.848548310896055	-0.5893588945120314	-0.25682905711742043	1.7410667897261718	-0.5094471840396065	-0.2073949057317591	1.6601568602615144	-0.48246300500022116	-0.2151675549883716	1.624260216060213	-0.4834461460881931	-0.21493881936015227	1.6323809941891727	-0.4528112166907056	-0.19559760218008423	1.6637166225959064	-0.49625567849322694	-0.18446141926409018	1.8365316619998073	-0.7195833314323332	-0.2007609618451729	1.6995600206668005	-0.6714100493880186	-0.19106606712842963	1.5577568921382383	-0.6568123597023567	-0.22731480162042592	1.521423425718393	-0.6294813718437677	-0.21648621827870682	1.5258342459875447	-0.6654426089275416	-0.18275259380562875	1.5474798602107576	-0.6550913768919833	-0.17293814650508038	1.9958845101643146	-0.7298037287844407	-0.2080195903581043	2.047696576191161	-0.6751452631245514	-0.1936593474017774	1.9956301645043362	-0.63220042221754	-0.19316312359649981	1.9256543917198936	-0.5659262058550529	-0.2194879578625921	1.9119755352580583	-0.5949914747319733	-0.15140903329887867	1.9966714751103558	-0.8246152248276349	-0.14609958756271335	1.910155653292497	-0.8626333723634275	-0.2000699024693467	1.877426831163309	-0.7589749662028098
